<svg xmlns="http://www.w3.org/2000/svg" width="20" height="20" viewBox="0 0 20 20" fill="none">
  <g clip-path="url(#clip0_3762_171)">
    <path d="M16.174 5.84657L12.8721 5.36677L11.3954 2.37474C10.8251 1.21899 9.1758 1.21935 8.60564 2.3747L7.12896 5.36673L3.82705 5.84657C2.55154 6.03188 2.0424 7.60044 2.96498 8.49981L5.35427 10.8288L4.79025 14.1173C4.5724 15.3876 5.90673 16.3565 7.04724 15.7571L10.0006 14.2044L12.9539 15.7571C14.0928 16.3558 15.4287 15.3874 15.2109 14.1173L14.6469 10.8288L17.0362 8.49977C17.959 7.60009 17.449 6.03185 16.174 5.84657ZM16.1054 7.54505L13.4651 10.1186C13.308 10.2718 13.2363 10.4925 13.2734 10.7087L13.8967 14.3427C13.928 14.5252 13.7381 14.6631 13.5743 14.577L10.3107 12.8613C10.1165 12.7592 9.88447 12.7592 9.69029 12.8613L6.42673 14.577C6.26283 14.6631 6.07302 14.5252 6.10431 14.3427L6.72759 10.7087C6.76466 10.4925 6.69298 10.2718 6.53587 10.1186L3.8956 7.54505C3.76298 7.41579 3.83552 7.19267 4.01876 7.16599L7.66752 6.63579C7.88462 6.60423 8.07236 6.4679 8.16947 6.27114L9.80126 2.96478C9.88318 2.79884 10.1178 2.79872 10.1998 2.96481L11.8316 6.27114C11.9287 6.4679 12.1164 6.60427 12.3335 6.63579L15.9823 7.16599C16.1655 7.19267 16.238 7.41583 16.1054 7.54505Z" fill="#136FE8"/>
    <path d="M5.26284 1.84194L4.46554 0.744553C4.24906 0.446741 3.83218 0.380647 3.53437 0.597131C3.23652 0.813537 3.17046 1.23045 3.38691 1.5283L4.18421 2.62565C4.40077 2.92362 4.81765 2.98944 5.11538 2.77307C5.41323 2.5567 5.47929 2.13979 5.26284 1.84194Z" fill="#136FE8"/>
    <path d="M2.6171 11.676C2.50339 11.3258 2.12729 11.134 1.77706 11.2479L0.460807 11.6756C0.110651 11.7894 -0.0809506 12.1655 0.0327994 12.5157C0.146745 12.8664 0.523463 13.0574 0.872838 12.9437L2.18909 12.516C2.53928 12.4022 2.73089 12.0261 2.6171 11.676Z" fill="#136FE8"/>
    <path d="M16.4662 0.597109C16.1684 0.380702 15.7515 0.446679 15.535 0.74453L14.7377 1.84187C14.5213 2.13973 14.5873 2.55668 14.8852 2.77305C15.1832 2.98953 15.6 2.92336 15.8164 2.62562L16.6137 1.52828C16.8301 1.23043 16.7641 0.813476 16.4662 0.597109Z" fill="#136FE8"/>
    <path d="M19.5399 11.6757L18.2237 11.248C17.8735 11.134 17.4974 11.3258 17.3836 11.676C17.2699 12.0261 17.4615 12.4023 17.8117 12.516L19.1279 12.9437C19.4773 13.0574 19.854 12.8664 19.9679 12.5157C20.0817 12.1656 19.8901 11.7895 19.5399 11.6757Z" fill="#136FE8"/>
    <path d="M10.0006 16.8438C9.63246 16.8438 9.33398 17.1422 9.33398 17.5104V18.8634C9.33398 19.2316 9.63246 19.5301 10.0006 19.5301C10.3688 19.5301 10.6673 19.2316 10.6673 18.8634V17.5104C10.6673 17.1422 10.3688 16.8438 10.0006 16.8438Z" fill="#136FE8"/>
  </g>
  <defs>
    <clipPath id="clip0_3762_171">
      <rect width="20" height="20" fill="white"/>
    </clipPath>
  </defs>
</svg>
