<svg xmlns="http://www.w3.org/2000/svg" width="1280" height="72" viewBox="0 0 1280 72" fill="none">
<g clip-path="url(#clip0_124_5280)">
<rect width="1280" height="72" fill="url(#paint0_linear_124_5280)"/>




<g opacity="0.2">
<path d="M76.5557 19.6667V16.8333C76.5557 16.0819 76.821 15.3612 77.2933 14.8299C77.7656 14.2985 78.4062 14 79.0742 14C79.7421 14 80.3827 14.2985 80.855 14.8299C81.3274 15.3612 81.5927 16.0819 81.5927 16.8333V19.6667M78.4446 23.2083C78.4446 23.3962 78.5109 23.5764 78.629 23.7092C78.747 23.842 78.9072 23.9167 79.0742 23.9167C79.2412 23.9167 79.4013 23.842 79.5194 23.7092C79.6375 23.5764 79.7038 23.3962 79.7038 23.2083C79.7038 23.0205 79.6375 22.8403 79.5194 22.7075C79.4013 22.5746 79.2412 22.5 79.0742 22.5C78.9072 22.5 78.747 22.5746 78.629 22.7075C78.5109 22.8403 78.4446 23.0205 78.4446 23.2083Z" stroke="#57BD8D" stroke-linecap="round" stroke-linejoin="round"/>
<path d="M74.6667 21.0807C74.6667 20.705 74.7994 20.3447 75.0356 20.079C75.2717 19.8133 75.592 19.6641 75.926 19.6641H82.2223C82.5563 19.6641 82.8766 19.8133 83.1127 20.079C83.3489 20.3447 83.4816 20.705 83.4816 21.0807V25.3307C83.4816 25.7065 83.3489 26.0668 83.1127 26.3325C82.8766 26.5981 82.5563 26.7474 82.2223 26.7474H75.926C75.592 26.7474 75.2717 26.5981 75.0356 26.3325C74.7994 26.0668 74.6667 25.7065 74.6667 25.3307V21.0807Z" stroke="white" stroke-linecap="round" stroke-linejoin="round"/>
</g>
<g opacity="0.2">
<path d="M133.445 52.6667V49.8333C133.445 49.0819 133.71 48.3612 134.182 47.8299C134.655 47.2985 135.295 47 135.963 47C136.631 47 137.272 47.2985 137.744 47.8299C138.216 48.3612 138.482 49.0819 138.482 49.8333V52.6667M135.333 56.2083C135.333 56.3962 135.4 56.5764 135.518 56.7092C135.636 56.842 135.796 56.9167 135.963 56.9167C136.13 56.9167 136.29 56.842 136.408 56.7092C136.526 56.5764 136.593 56.3962 136.593 56.2083C136.593 56.0205 136.526 55.8403 136.408 55.7075C136.29 55.5746 136.13 55.5 135.963 55.5C135.796 55.5 135.636 55.5746 135.518 55.7075C135.4 55.8403 135.333 56.0205 135.333 56.2083Z" stroke="#57BD8D" stroke-linecap="round" stroke-linejoin="round"/>
<path d="M131.556 54.0807C131.556 53.705 131.688 53.3447 131.924 53.079C132.161 52.8133 132.481 52.6641 132.815 52.6641H139.111C139.445 52.6641 139.765 52.8133 140.002 53.079C140.238 53.3447 140.37 53.705 140.37 54.0807V58.3307C140.37 58.7065 140.238 59.0668 140.002 59.3325C139.765 59.5981 139.445 59.7474 139.111 59.7474H132.815C132.481 59.7474 132.161 59.5981 131.924 59.3325C131.688 59.0668 131.556 58.7065 131.556 58.3307V54.0807Z" stroke="white" stroke-linecap="round" stroke-linejoin="round"/>
</g>
<g opacity="0.2">
<path d="M93.3333 49.5703C93.3333 49.7931 93.4118 50.0068 93.5517 50.1645C93.6916 50.3222 93.8814 50.411 94.0794 50.4115H102.307C102.505 50.411 102.695 50.3222 102.835 50.1645C102.975 50.0068 103.053 49.7931 103.053 49.5703V47.8594C102.73 47.7609 102.445 47.5456 102.242 47.2467C102.039 46.9479 101.929 46.582 101.929 46.2057C101.929 45.8294 102.039 45.4636 102.242 45.1647C102.445 44.8658 102.73 44.6505 103.053 44.552V42.8411C103.053 42.6184 102.975 42.4047 102.835 42.247C102.695 42.0893 102.505 42.0004 102.307 42H94.0794C93.8814 42.0004 93.6916 42.0893 93.5517 42.247C93.4118 42.4047 93.3333 42.6184 93.3333 42.8411V44.5487C93.6587 44.645 93.9466 44.8598 94.152 45.1595C94.3575 45.4593 94.4689 45.8272 94.4689 46.2057C94.4689 46.5843 94.3575 46.9521 94.152 47.2519C93.9466 47.5517 93.6587 47.7665 93.3333 47.8628V49.5703Z" stroke="white" stroke-linecap="round" stroke-linejoin="round"/>
<path d="M96.3401 48.3073L100.079 44.1016" stroke="#57BD8D" stroke-linecap="round" stroke-linejoin="round"/>
<path d="M96.7139 44.9427C96.8131 44.9427 96.9082 44.8984 96.9783 44.8195C97.0484 44.7407 97.0878 44.6337 97.0878 44.5221C97.0878 44.4106 97.0484 44.3036 96.9783 44.2247C96.9082 44.1459 96.8131 44.1016 96.7139 44.1016C96.6148 44.1016 96.5197 44.1459 96.4496 44.2247C96.3795 44.3036 96.3401 44.4106 96.3401 44.5221C96.3401 44.6337 96.3795 44.7407 96.4496 44.8195C96.5197 44.8984 96.6148 44.9427 96.7139 44.9427ZM99.7047 48.3073C99.8038 48.3073 99.8989 48.263 99.969 48.1841C100.039 48.1052 100.079 47.9983 100.079 47.8867C100.079 47.7752 100.039 47.6682 99.969 47.5893C99.8989 47.5105 99.8038 47.4661 99.7047 47.4661C99.6055 47.4661 99.5104 47.5105 99.4403 47.5893C99.3702 47.6682 99.3308 47.7752 99.3308 47.8867C99.3308 47.9983 99.3702 48.1052 99.4403 48.1841C99.5104 48.263 99.6055 48.3073 99.7047 48.3073Z" stroke="#57BD8D" stroke-linecap="round" stroke-linejoin="round"/>
</g>
<g opacity="0.2">
<path d="M1190.22 49.5703C1190.22 49.7931 1190.3 50.0068 1190.44 50.1645C1190.58 50.3222 1190.77 50.411 1190.97 50.4115H1199.2C1199.39 50.411 1199.58 50.3222 1199.72 50.1645C1199.86 50.0068 1199.94 49.7931 1199.94 49.5703V47.8594C1199.62 47.7609 1199.33 47.5456 1199.13 47.2467C1198.93 46.9479 1198.82 46.582 1198.82 46.2057C1198.82 45.8294 1198.93 45.4636 1199.13 45.1647C1199.33 44.8658 1199.62 44.6505 1199.94 44.552V42.8411C1199.94 42.6184 1199.86 42.4047 1199.72 42.247C1199.58 42.0893 1199.39 42.0004 1199.2 42H1190.97C1190.77 42.0004 1190.58 42.0893 1190.44 42.247C1190.3 42.4047 1190.22 42.6184 1190.22 42.8411V44.5487C1190.55 44.645 1190.84 44.8598 1191.04 45.1595C1191.25 45.4593 1191.36 45.8272 1191.36 46.2057C1191.36 46.5843 1191.25 46.9521 1191.04 47.2519C1190.84 47.5517 1190.55 47.7665 1190.22 47.8628V49.5703Z" stroke="white" stroke-linecap="round" stroke-linejoin="round"/>
<path d="M1193.23 48.3073L1196.97 44.1016" stroke="#57BD8D" stroke-linecap="round" stroke-linejoin="round"/>
<path d="M1193.6 44.9427C1193.7 44.9427 1193.8 44.8984 1193.87 44.8195C1193.94 44.7407 1193.98 44.6337 1193.98 44.5221C1193.98 44.4106 1193.94 44.3036 1193.87 44.2247C1193.8 44.1459 1193.7 44.1016 1193.6 44.1016C1193.5 44.1016 1193.41 44.1459 1193.34 44.2247C1193.27 44.3036 1193.23 44.4106 1193.23 44.5221C1193.23 44.6337 1193.27 44.7407 1193.34 44.8195C1193.41 44.8984 1193.5 44.9427 1193.6 44.9427ZM1196.59 48.3073C1196.69 48.3073 1196.79 48.263 1196.86 48.1841C1196.93 48.1052 1196.97 47.9983 1196.97 47.8867C1196.97 47.7752 1196.93 47.6682 1196.86 47.5893C1196.79 47.5105 1196.69 47.4661 1196.59 47.4661C1196.49 47.4661 1196.4 47.5105 1196.33 47.5893C1196.26 47.6682 1196.22 47.7752 1196.22 47.8867C1196.22 47.9983 1196.26 48.1052 1196.33 48.1841C1196.4 48.263 1196.49 48.3073 1196.59 48.3073Z" stroke="#57BD8D" stroke-linecap="round" stroke-linejoin="round"/>
</g>
<g opacity="0.2">
<path d="M46.7491 45.8359C43.8066 44.8901 41.7778 41.8378 41.7778 38.395V34.624L46.7491 32.9995L51.7203 34.624V38.395C51.7203 41.8378 49.6916 44.8901 46.7491 45.8359Z" stroke="white" stroke-miterlimit="10" stroke-linecap="round" stroke-linejoin="round"/>
<path d="M44.5488 39.1068L46.018 40.6562L48.9562 37.5573" stroke="#57BD8D" stroke-miterlimit="10" stroke-linecap="round" stroke-linejoin="round"/>
</g>
<g opacity="0.2">
<path d="M12.4443 23.5703C12.4443 23.7931 12.5229 24.0068 12.6628 24.1645C12.8027 24.3222 12.9925 24.411 13.1905 24.4115H21.4181C21.6161 24.411 21.8059 24.3222 21.9458 24.1645C22.0857 24.0068 22.1642 23.7931 22.1642 23.5703V21.8594C21.8414 21.7609 21.5564 21.5456 21.3532 21.2467C21.1499 20.9479 21.0398 20.582 21.0398 20.2057C21.0398 19.8294 21.1499 19.4636 21.3532 19.1647C21.5564 18.8658 21.8414 18.6505 22.1642 18.552V16.8411C22.1642 16.6184 22.0857 16.4047 21.9458 16.247C21.8059 16.0893 21.6161 16.0004 21.4181 16H13.1905C12.9925 16.0004 12.8027 16.0893 12.6628 16.247C12.5229 16.4047 12.4443 16.6184 12.4443 16.8411V18.5487C12.7697 18.645 13.0576 18.8598 13.2631 19.1595C13.4685 19.4593 13.58 19.8272 13.58 20.2057C13.58 20.5843 13.4685 20.9521 13.2631 21.2519C13.0576 21.5517 12.7697 21.7665 12.4443 21.8628V23.5703Z" stroke="white" stroke-linecap="round" stroke-linejoin="round"/>
<path d="M15.4512 22.3073L19.1896 18.1016" stroke="#57BD8D" stroke-linecap="round" stroke-linejoin="round"/>
<path d="M15.825 18.9427C15.9242 18.9427 16.0193 18.8984 16.0894 18.8195C16.1595 18.7407 16.1989 18.6337 16.1989 18.5221C16.1989 18.4106 16.1595 18.3036 16.0894 18.2247C16.0193 18.1459 15.9242 18.1016 15.825 18.1016C15.7259 18.1016 15.6308 18.1459 15.5607 18.2247C15.4906 18.3036 15.4512 18.4106 15.4512 18.5221C15.4512 18.6337 15.4906 18.7407 15.5607 18.8195C15.6308 18.8984 15.7259 18.9427 15.825 18.9427ZM18.8158 22.3073C18.9149 22.3073 19.01 22.263 19.0801 22.1841C19.1502 22.1052 19.1896 21.9983 19.1896 21.8867C19.1896 21.7752 19.1502 21.6682 19.0801 21.5893C19.01 21.5105 18.9149 21.4661 18.8158 21.4661C18.7166 21.4661 18.6215 21.5105 18.5514 21.5893C18.4813 21.6682 18.4419 21.7752 18.4419 21.8867C18.4419 21.9983 18.4813 22.1052 18.5514 22.1841C18.6215 22.263 18.7166 22.3073 18.8158 22.3073Z" stroke="#57BD8D" stroke-linecap="round" stroke-linejoin="round"/>
</g>
<g opacity="0.2">
<path d="M1171.19 29.8359C1168.25 28.8901 1166.22 25.8378 1166.22 22.395V18.624L1171.19 16.9995L1176.16 18.624V22.395C1176.16 25.8378 1174.14 28.8901 1171.19 29.8359Z" stroke="white" stroke-miterlimit="10" stroke-linecap="round" stroke-linejoin="round"/>
<path d="M1168.99 23.1068L1170.46 24.6562L1173.4 21.5573" stroke="#57BD8D" stroke-miterlimit="10" stroke-linecap="round" stroke-linejoin="round"/>
</g>
<g opacity="0.2">
<path d="M1269.86 18.8359C1266.92 17.8901 1264.89 14.8378 1264.89 11.395V7.624L1269.86 5.99947L1274.83 7.624V11.395C1274.83 14.8378 1272.8 17.8901 1269.86 18.8359Z" stroke="white" stroke-miterlimit="10" stroke-linecap="round" stroke-linejoin="round"/>
<path d="M1267.66 12.1068L1269.13 13.6562L1272.07 10.5573" stroke="#57BD8D" stroke-miterlimit="10" stroke-linecap="round" stroke-linejoin="round"/>
</g>
<g opacity="0.2">
<path d="M1221.76 25.6111V22.3056C1221.76 21.4289 1222.07 20.5881 1222.62 19.9682C1223.17 19.3483 1223.92 19 1224.7 19C1225.47 19 1226.22 19.3483 1226.77 19.9682C1227.32 20.5881 1227.63 21.4289 1227.63 22.3056V25.6111M1223.96 29.7431C1223.96 29.9622 1224.04 30.1724 1224.18 30.3274C1224.31 30.4824 1224.5 30.5694 1224.7 30.5694C1224.89 30.5694 1225.08 30.4824 1225.21 30.3274C1225.35 30.1724 1225.43 29.9622 1225.43 29.7431C1225.43 29.5239 1225.35 29.3137 1225.21 29.1587C1225.08 29.0037 1224.89 28.9167 1224.7 28.9167C1224.5 28.9167 1224.31 29.0037 1224.18 29.1587C1224.04 29.3137 1223.96 29.5239 1223.96 29.7431Z" stroke="#57BD8D" stroke-linecap="round" stroke-linejoin="round"/>
<path d="M1219.56 27.2622C1219.56 26.8238 1219.71 26.4034 1219.99 26.0935C1220.26 25.7835 1220.64 25.6094 1221.02 25.6094H1228.37C1228.76 25.6094 1229.13 25.7835 1229.41 26.0935C1229.68 26.4034 1229.84 26.8238 1229.84 27.2622V32.2205C1229.84 32.6588 1229.68 33.0792 1229.41 33.3892C1229.13 33.6991 1228.76 33.8733 1228.37 33.8733H1221.02C1220.64 33.8733 1220.26 33.6991 1219.99 33.3892C1219.71 33.0792 1219.56 32.6588 1219.56 32.2205V27.2622Z" stroke="white" stroke-linecap="round" stroke-linejoin="round"/>
</g>
<g opacity="0.2">
<path d="M1131.09 52.6111V49.3056C1131.09 48.4289 1131.4 47.5881 1131.95 46.9682C1132.5 46.3483 1133.25 46 1134.03 46C1134.81 46 1135.55 46.3483 1136.11 46.9682C1136.66 47.5881 1136.97 48.4289 1136.97 49.3056V52.6111M1133.29 56.7431C1133.29 56.9622 1133.37 57.1724 1133.51 57.3274C1133.65 57.4824 1133.83 57.5694 1134.03 57.5694C1134.22 57.5694 1134.41 57.4824 1134.55 57.3274C1134.69 57.1724 1134.76 56.9622 1134.76 56.7431C1134.76 56.5239 1134.69 56.3137 1134.55 56.1587C1134.41 56.0037 1134.22 55.9167 1134.03 55.9167C1133.83 55.9167 1133.65 56.0037 1133.51 56.1587C1133.37 56.3137 1133.29 56.5239 1133.29 56.7431Z" stroke="#57BD8D" stroke-linecap="round" stroke-linejoin="round"/>
<path d="M1128.89 54.2622C1128.89 53.8238 1129.04 53.4034 1129.32 53.0935C1129.59 52.7835 1129.97 52.6094 1130.36 52.6094H1137.7C1138.09 52.6094 1138.47 52.7835 1138.74 53.0935C1139.02 53.4034 1139.17 53.8238 1139.17 54.2622V59.2205C1139.17 59.6588 1139.02 60.0792 1138.74 60.3892C1138.47 60.6991 1138.09 60.8733 1137.7 60.8733H1130.36C1129.97 60.8733 1129.59 60.6991 1129.32 60.3892C1129.04 60.0792 1128.89 59.6588 1128.89 59.2205V54.2622Z" stroke="white" stroke-linecap="round" stroke-linejoin="round"/>
</g>
<g opacity="0.2">
<path d="M1255.72 54.992L1255.43 54.5644C1255.18 54.1882 1254.65 54.2185 1254.44 54.6202C1254.14 55.1854 1253.33 54.9604 1253.33 54.3127V44.0837C1253.33 43.436 1254.14 43.211 1254.44 43.7757C1254.65 44.1779 1255.18 44.2083 1255.43 43.8321L1255.72 43.4044C1256.08 42.8652 1256.83 42.8652 1257.19 43.4044L1257.24 43.472C1257.62 44.0434 1258.41 44.0434 1258.8 43.472L1258.84 43.4044C1259.2 42.8652 1259.95 42.8652 1260.31 43.4044L1260.6 43.8321C1260.85 44.2083 1261.38 44.1779 1261.59 43.7763C1261.89 43.2117 1262.7 43.436 1262.7 44.0837V54.3127C1262.7 54.9604 1261.89 55.1854 1261.59 54.6208C1261.38 54.2185 1260.85 54.1882 1260.6 54.5644L1260.31 54.992C1259.95 55.5313 1259.2 55.5313 1258.84 54.992L1258.8 54.9245C1258.41 54.353 1257.62 54.353 1257.24 54.9245L1257.19 54.992C1256.83 55.5313 1256.08 55.5313 1255.72 54.992Z" stroke="white" stroke-linejoin="round"/>
<path d="M1259.67 47.3359L1256.36 51.0547" stroke="#57BD8D" stroke-linecap="round" stroke-linejoin="round"/>
<path d="M1259.67 51.0547H1259.66M1256.37 47.3359H1256.36" stroke="#57BD8D" stroke-linecap="round" stroke-linejoin="round"/>
</g>
<g opacity="0.2">
<path d="M1128.61 19.992L1128.32 19.5644C1128.07 19.1882 1127.54 19.2185 1127.33 19.6202C1127.03 20.1854 1126.22 19.9604 1126.22 19.3127V9.08371C1126.22 8.43602 1127.03 8.21104 1127.33 8.77567C1127.54 9.17791 1128.07 9.20828 1128.32 8.83207L1128.61 8.40441C1128.97 7.8652 1129.72 7.8652 1130.08 8.40441L1130.12 8.47197C1130.51 9.04342 1131.3 9.04342 1131.69 8.47197L1131.73 8.40441C1132.09 7.8652 1132.84 7.8652 1133.2 8.40441L1133.49 8.83207C1133.74 9.20828 1134.27 9.17791 1134.48 8.77629C1134.78 8.21166 1135.59 8.43602 1135.59 9.08371V19.3127C1135.59 19.9604 1134.78 20.1854 1134.48 19.6208C1134.27 19.2185 1133.74 19.1882 1133.49 19.5644L1133.2 19.992C1132.84 20.5313 1132.09 20.5313 1131.73 19.992L1131.69 19.9245C1131.3 19.353 1130.51 19.353 1130.12 19.9245L1130.08 19.992C1129.72 20.5313 1128.97 20.5313 1128.61 19.992Z" stroke="white" stroke-linejoin="round"/>
<path d="M1132.56 12.3359L1129.25 16.0547" stroke="#57BD8D" stroke-linecap="round" stroke-linejoin="round"/>
<path d="M1132.56 16.0547H1132.55M1129.25 12.3359H1129.25" stroke="#57BD8D" stroke-linecap="round" stroke-linejoin="round"/>
</g>
<g opacity="0.2">
<path d="M125.942 20.992L125.656 20.5644C125.406 20.1882 124.872 20.2185 124.661 20.6202C124.363 21.1854 123.556 20.9604 123.556 20.3127V10.0837C123.556 9.43602 124.363 9.21104 124.661 9.77567C124.872 10.1779 125.406 10.2083 125.656 9.83207L125.942 9.40441C126.302 8.8652 127.053 8.8652 127.413 9.40441L127.458 9.47197C127.84 10.0434 128.637 10.0434 129.019 9.47197L129.064 9.40441C129.424 8.8652 130.175 8.8652 130.535 9.40441L130.821 9.83207C131.071 10.2083 131.605 10.1779 131.816 9.77629C132.114 9.21166 132.921 9.43602 132.921 10.0837V20.3127C132.921 20.9604 132.114 21.1854 131.816 20.6208C131.605 20.2185 131.071 20.1882 130.821 20.5644L130.535 20.992C130.175 21.5313 129.424 21.5313 129.064 20.992L129.019 20.9245C128.637 20.353 127.84 20.353 127.458 20.9245L127.413 20.992C127.053 21.5313 126.302 21.5313 125.942 20.992Z" stroke="white" stroke-linejoin="round"/>
<path d="M129.889 13.3359L126.583 17.0547" stroke="#57BD8D" stroke-linecap="round" stroke-linejoin="round"/>
<path d="M129.889 17.0547H129.884M126.588 13.3359H126.583" stroke="#57BD8D" stroke-linecap="round" stroke-linejoin="round"/>
</g>
<g opacity="0.2">
<path d="M10.3866 62.992L10.1007 62.5644C9.85001 62.1882 9.31671 62.2185 9.10516 62.6202C8.80766 63.1854 8 62.9604 8 62.3127V52.0837C8 51.436 8.80766 51.211 9.10516 51.7757C9.31671 52.1779 9.85001 52.2083 10.1007 51.8321L10.3866 51.4044C10.7464 50.8652 11.4978 50.8652 11.8576 51.4044L11.9022 51.472C12.284 52.0434 13.0812 52.0434 13.4635 51.472L13.5082 51.4044C13.8679 50.8652 14.6194 50.8652 14.9791 51.4044L15.2651 51.8321C15.5157 52.2083 16.049 52.1779 16.2606 51.7763C16.5581 51.2117 17.3657 51.436 17.3657 52.0837V62.3127C17.3657 62.9604 16.5581 63.1854 16.2606 62.6208C16.049 62.2185 15.5157 62.1882 15.2651 62.5644L14.9797 62.992C14.6194 63.5313 13.8679 63.5313 13.5087 62.992L13.4635 62.9245C13.0817 62.353 12.2846 62.353 11.9022 62.9245L11.8576 62.992C11.4978 63.5313 10.7464 63.5313 10.3866 62.992Z" stroke="white" stroke-linejoin="round"/>
<path d="M14.3334 55.3359L11.0278 59.0547" stroke="#57BD8D" stroke-linecap="round" stroke-linejoin="round"/>
<path d="M14.3334 59.0547H14.3284M11.0328 55.3359H11.0278" stroke="#57BD8D" stroke-linecap="round" stroke-linejoin="round"/>
</g>

</g>
<defs>
<filter id="filter0_d_124_5280" x="1037" y="3" width="204" height="82" filterUnits="userSpaceOnUse" color-interpolation-filters="sRGB">
<feFlood flood-opacity="0" result="BackgroundImageFix"/>
<feColorMatrix in="SourceAlpha" type="matrix" values="0 0 0 0 0 0 0 0 0 0 0 0 0 0 0 0 0 0 127 0" result="hardAlpha"/>
<feMorphology radius="4" operator="erode" in="SourceAlpha" result="effect1_dropShadow_124_5280"/>
<feOffset dy="8"/>
<feGaussianBlur stdDeviation="13"/>
<feColorMatrix type="matrix" values="0 0 0 0 0.152941 0 0 0 0 0.156863 0 0 0 0 0.235294 0 0 0 0.2 0"/>
<feBlend mode="normal" in2="BackgroundImageFix" result="effect1_dropShadow_124_5280"/>
<feBlend mode="normal" in="SourceGraphic" in2="effect1_dropShadow_124_5280" result="shape"/>
</filter>
<linearGradient id="paint0_linear_124_5280" x1="1704.44" y1="36" x2="83.1869" y2="-483.935" gradientUnits="userSpaceOnUse">
<stop stop-color="#0F2942"/>
<stop offset="1" stop-color="#1E4DD8"/>
</linearGradient>
<linearGradient id="paint1_linear_124_5280" x1="-135.927" y1="95.4286" x2="-114.377" y2="-124.423" gradientUnits="userSpaceOnUse">
<stop stop-color="#E44B26"/>
<stop offset="1" stop-color="#F3CF4E"/>
</linearGradient>
<linearGradient id="paint2_linear_124_5280" x1="1012.45" y1="122.314" x2="1215.03" y2="-147.091" gradientUnits="userSpaceOnUse">
<stop stop-color="#E44B26"/>
<stop offset="1" stop-color="#F3CF4E"/>
</linearGradient>
<clipPath id="clip0_124_5280">
<rect width="1280" height="72" fill="white"/>
</clipPath>
<clipPath id="clip1_124_5280">
<rect width="16" height="16" fill="white" transform="translate(1179 28)"/>
</clipPath>
</defs>
</svg>