<svg preserveAspectRatio="none" width="100%" height="100%" overflow="visible" style="display: block;" viewBox="0 0 928.91 917.593" fill="none" xmlns="http://www.w3.org/2000/svg">
<g id="Group" style="mix-blend-mode:soft-light" opacity="0.1">
<path id="Vector" d="M464.455 463.818C478.784 463.818 490.401 452.343 490.401 438.188C490.401 424.033 478.784 412.558 464.455 412.558C450.125 412.558 438.509 424.033 438.509 438.188C438.509 452.343 450.125 463.818 464.455 463.818Z" stroke="var(--stroke-0, white)" stroke-width="0.91" stroke-miterlimit="10" stroke-linecap="round"/>
<path id="Vector_2" d="M464.456 498.691C497.395 498.691 524.098 472.313 524.098 439.775C524.098 407.237 497.395 380.86 464.456 380.86C431.516 380.86 404.813 407.237 404.813 439.775C404.813 472.313 431.516 498.691 464.456 498.691Z" stroke="var(--stroke-0, white)" stroke-width="0.91" stroke-miterlimit="10" stroke-linecap="round"/>
<path id="Vector_3" d="M464.454 533.564C516.005 533.564 557.794 492.284 557.794 441.362C557.794 390.441 516.005 349.161 464.454 349.161C412.904 349.161 371.115 390.441 371.115 441.362C371.115 492.284 412.904 533.564 464.454 533.564Z" stroke="var(--stroke-0, white)" stroke-width="0.91" stroke-miterlimit="10" stroke-linecap="round"/>
<path id="Vector_4" d="M464.455 568.432C534.616 568.432 591.492 512.249 591.492 442.945C591.492 373.64 534.616 317.457 464.455 317.457C394.295 317.457 337.419 373.64 337.419 442.945C337.419 512.249 394.295 568.432 464.455 568.432Z" stroke="var(--stroke-0, white)" stroke-width="0.91" stroke-miterlimit="10" stroke-linecap="round"/>
<path id="Vector_5" d="M464.456 603.305C553.226 603.305 625.189 532.22 625.189 444.532C625.189 356.844 553.226 285.758 464.456 285.758C375.685 285.758 303.722 356.844 303.722 444.532C303.722 532.22 375.685 603.305 464.456 603.305Z" stroke="var(--stroke-0, white)" stroke-width="0.91" stroke-miterlimit="10" stroke-linecap="round"/>
<path id="Vector_6" d="M464.455 638.168C571.833 638.168 658.88 552.183 658.88 446.114C658.88 340.045 571.833 254.06 464.455 254.06C357.077 254.06 270.03 340.045 270.03 446.114C270.03 552.183 357.077 638.168 464.455 638.168Z" stroke="var(--stroke-0, white)" stroke-width="0.91" stroke-miterlimit="10" stroke-linecap="round"/>
<path id="Vector_7" d="M464.456 673.041C590.444 673.041 692.578 572.153 692.578 447.701C692.578 323.249 590.444 222.361 464.456 222.361C338.467 222.361 236.334 323.249 236.334 447.701C236.334 572.153 338.467 673.041 464.456 673.041Z" stroke="var(--stroke-0, white)" stroke-width="0.91" stroke-miterlimit="10" stroke-linecap="round"/>
<path id="Vector_8" d="M464.454 707.909C609.053 707.909 726.273 592.118 726.273 449.283C726.273 306.448 609.053 190.657 464.454 190.657C319.856 190.657 202.636 306.448 202.636 449.283C202.636 592.118 319.856 707.909 464.454 707.909Z" stroke="var(--stroke-0, white)" stroke-width="0.91" stroke-miterlimit="10" stroke-linecap="round"/>
<path id="Vector_9" d="M464.455 742.782C627.664 742.782 759.971 612.089 759.971 450.871C759.971 289.652 627.664 158.959 464.455 158.959C301.246 158.959 168.939 289.652 168.939 450.871C168.939 612.089 301.246 742.782 464.455 742.782Z" stroke="var(--stroke-0, white)" stroke-width="0.91" stroke-miterlimit="10" stroke-linecap="round"/>
<path id="Vector_10" d="M464.456 777.656C646.275 777.656 793.668 632.06 793.668 452.458C793.668 272.856 646.275 127.26 464.456 127.26C282.637 127.26 135.243 272.856 135.243 452.458C135.243 632.06 282.637 777.656 464.456 777.656Z" stroke="var(--stroke-0, white)" stroke-width="0.91" stroke-miterlimit="10" stroke-linecap="round"/>
<path id="Vector_11" d="M464.455 812.524C664.884 812.524 827.364 652.025 827.364 454.04C827.364 256.055 664.884 95.5562 464.455 95.5562C264.025 95.5562 101.545 256.055 101.545 454.04C101.545 652.025 264.025 812.524 464.455 812.524Z" stroke="var(--stroke-0, white)" stroke-width="0.91" stroke-miterlimit="10" stroke-linecap="round"/>
<path id="Vector_12" d="M464.455 847.397C683.495 847.397 861.062 671.995 861.062 455.627C861.062 239.259 683.495 63.8574 464.455 63.8574C245.416 63.8574 67.8491 239.259 67.8491 455.627C67.8491 671.995 245.416 847.397 464.455 847.397Z" stroke="var(--stroke-0, white)" stroke-width="0.91" stroke-miterlimit="10" stroke-linecap="round"/>
<path id="Vector_13" d="M464.454 882.265C702.104 882.265 894.757 691.961 894.757 457.209C894.757 222.458 702.104 32.1537 464.454 32.1537C226.804 32.1537 34.1512 222.458 34.1512 457.209C34.1512 691.961 226.804 882.265 464.454 882.265Z" stroke="var(--stroke-0, white)" stroke-width="0.91" stroke-miterlimit="10" stroke-linecap="round"/>
<path id="Vector_14" d="M464.455 917.138C720.715 917.138 928.455 711.931 928.455 458.796C928.455 205.661 720.715 0.455 464.455 0.455C208.195 0.455 0.455 205.661 0.455 458.796C0.455 711.931 208.195 917.138 464.455 917.138Z" stroke="var(--stroke-0, white)" stroke-width="0.91" stroke-miterlimit="10" stroke-linecap="round"/>
</g>
</svg>
