<svg preserveAspectRatio="none" width="100%" height="100%" overflow="visible" style="display: block;" viewBox="0 0 114 50" fill="none" xmlns="http://www.w3.org/2000/svg">
<g id="Layer_1" clip-path="url(#clip0_0_11)">
<path id="Vector" d="M75.7408 21.8026C75.4923 21.2053 75.1274 20.6791 74.6462 20.2242C74.165 19.7692 73.5675 19.4159 72.8589 19.1592C72.1476 18.9025 71.3253 18.7754 70.3893 18.7754C69.2207 18.7754 68.1921 18.9127 67.3037 19.1872C66.4154 19.4617 65.6539 19.8302 65.0167 20.2928C64.3794 20.7554 63.8612 21.279 63.4593 21.8636C63.0574 22.4481 62.7613 23.0582 62.5762 23.691C62.3885 24.3239 62.296 24.9441 62.296 25.5439C62.296 26.4793 62.4572 27.2901 62.7798 27.9789C63.1024 28.6676 63.5413 29.2319 64.0992 29.6792C64.6544 30.124 65.289 30.4544 66.0002 30.6705C66.7115 30.8865 67.4492 30.9933 68.2159 30.9933C68.6469 30.9933 69.1096 30.9475 69.6041 30.8586C70.1011 30.7696 70.5876 30.6298 71.0688 30.4417C71.5501 30.2537 71.9784 30.0097 72.3512 29.7123L71.5659 28.6473C71.1085 28.9269 70.6167 29.1429 70.0932 29.3005C69.5697 29.4581 69.0409 29.5369 68.5068 29.5369C67.9172 29.5369 67.354 29.4607 66.8172 29.3081C66.2805 29.1556 65.8046 28.9193 65.3948 28.599C64.9823 28.2788 64.6571 27.8645 64.4191 27.3511C64.1811 26.8376 64.0622 26.2175 64.0622 25.4905C64.0622 25.1855 64.1124 24.8119 64.2155 24.3722C64.3186 23.9325 64.4958 23.4724 64.7496 22.9972C65.0034 22.5219 65.3551 22.0745 65.8099 21.6551C66.2646 21.2383 66.8437 20.8977 67.5496 20.6359C68.2556 20.3741 69.1096 20.2445 70.1091 20.2445C71.1085 20.2445 71.8621 20.4072 72.4808 20.73C73.0968 21.0528 73.5569 21.4772 73.8557 22.0034C74.1544 22.5295 74.3051 23.1064 74.3051 23.7368C74.3051 24.1231 74.2602 24.4764 74.1729 24.7967C74.083 25.1169 73.9667 25.3889 73.8213 25.6202C73.6759 25.8489 73.5172 26.0243 73.3454 26.1463C73.1708 26.2683 73.0016 26.3293 72.8324 26.3293C72.7293 26.3293 72.6447 26.3039 72.5786 26.2556C72.5125 26.2073 72.4702 26.1285 72.4517 26.0192C72.4332 25.9125 72.4332 25.7803 72.4517 25.6278L72.9699 22.0542H71.09L70.8653 22.6871C70.7542 22.5244 70.6194 22.3744 70.466 22.2346C70.3127 22.0949 70.1117 21.9805 69.8632 21.8915C69.6146 21.8026 69.2868 21.7568 68.8743 21.7568C68.1631 21.7568 67.5417 21.9169 67.0076 22.2346C66.4735 22.5549 66.0584 22.9844 65.7596 23.5284C65.4609 24.0723 65.3101 24.6848 65.3101 25.3685C65.3101 25.9531 65.4291 26.4488 65.6671 26.858C65.9051 27.2672 66.2329 27.5773 66.648 27.7882C67.0631 27.9992 67.5285 28.1059 68.0441 28.1059C68.4275 28.1059 68.8003 28.0297 69.1599 27.8772C69.5194 27.7247 69.8394 27.5417 70.1196 27.3307C70.2836 27.2062 70.4211 27.0893 70.5374 26.9723C70.5427 26.9825 70.5427 26.9927 70.548 27.0003C70.7013 27.3231 70.9366 27.5798 71.2486 27.7679C71.5606 27.956 71.9202 28.05 72.3221 28.05C72.8932 28.05 73.4088 27.9356 73.8715 27.7069C74.3342 27.4781 74.7308 27.163 75.064 26.7639C75.3971 26.3649 75.6536 25.9048 75.836 25.3889C76.0185 24.8729 76.1084 24.3214 76.1084 23.7368C76.1084 23.0454 75.9841 22.3999 75.7356 21.8026H75.7408ZM69.9954 26.1717C69.8447 26.3013 69.6781 26.4005 69.4904 26.4691C69.3026 26.5377 69.0832 26.5708 68.832 26.5708C68.5517 26.5708 68.3032 26.5047 68.089 26.375C67.8749 26.2454 67.7056 26.07 67.584 25.8489C67.4624 25.6278 67.4016 25.3838 67.4016 25.1144C67.4016 24.7992 67.4783 24.5044 67.6343 24.2299C67.7876 23.9554 68.0044 23.7317 68.2794 23.5563C68.5544 23.3809 68.8664 23.2945 69.2127 23.2945C69.4666 23.2945 69.686 23.3327 69.879 23.4089C70.0694 23.4852 70.2307 23.5919 70.3629 23.7317C70.4951 23.8715 70.5823 24.0392 70.6299 24.2375L70.4184 25.6812C70.2862 25.8794 70.1461 26.0421 69.998 26.1743L69.9954 26.1717Z" fill="var(--fill-0, #76CBA1)"/>
<path id="Vector_2" d="M98.3844 26.8478C97.5753 25.8133 96.5627 24.9746 95.3596 24.3417C96.523 23.5563 97.4114 22.6947 98.009 21.7721C98.8101 20.5393 99.2146 18.9838 99.2146 17.1487C99.2146 15.8321 98.9608 14.6096 98.4558 13.5141C97.9508 12.4187 97.2343 11.4655 96.3247 10.6852C95.4204 9.91256 94.3152 9.3051 93.0382 8.88064C91.777 8.46126 90.3756 8.2503 88.8738 8.2503C87.372 8.2503 86.0156 8.46381 84.765 8.88318C83.5038 9.30764 82.3986 9.91256 81.4838 10.6827C80.5584 11.4604 79.8286 12.411 79.3104 13.5065C78.7921 14.602 78.5304 15.8296 78.5304 17.1487C78.5304 20.2725 79.8471 22.6922 82.4515 24.357C81.2775 24.967 80.2675 25.8006 79.4426 26.8427C78.2871 28.3016 77.7028 30.1266 77.7028 32.2641C77.7028 33.6544 78.0333 34.9456 78.6864 36.1046C79.3289 37.2458 80.1961 38.2269 81.267 39.025C82.3193 39.8078 83.525 40.4255 84.8549 40.855C86.1822 41.2846 87.5624 41.5031 88.9558 41.5031C90.3492 41.5031 91.732 41.2769 93.0461 40.8321C94.3628 40.3874 95.55 39.757 96.5759 38.9564C97.615 38.1481 98.4584 37.167 99.0851 36.0436C99.7249 34.8973 100.048 33.6239 100.048 32.2616C100.048 30.0757 99.4896 28.2534 98.387 26.8427L98.3844 26.8478ZM84.2045 13.626C84.2045 13.4887 84.2997 13.3667 84.4345 13.3286L88.776 12.0755C88.8368 12.0577 88.9029 12.0577 88.9637 12.0755L93.3052 13.3286C93.4427 13.3693 93.5353 13.4887 93.5353 13.626V18.2162C93.5353 18.8135 93.2841 19.4235 92.787 20.0335C92.4089 20.4987 91.8854 20.9638 91.2297 21.4213C90.1297 22.1864 89.0457 22.6566 89.0007 22.6769C88.9584 22.6947 88.9135 22.7049 88.8685 22.7049C88.8236 22.7049 88.7786 22.6947 88.7363 22.6769C88.6914 22.6566 87.6073 22.1889 86.5074 21.4213C85.8517 20.9663 85.3282 20.4987 84.9501 20.0335C84.453 19.4261 84.2018 18.8135 84.2018 18.2162V13.626H84.2045ZM94.0693 36.0894C94.0693 36.2419 93.9636 36.3791 93.8129 36.4223L88.9743 37.8177C88.9056 37.838 88.8342 37.838 88.7654 37.8177L83.9295 36.4223C83.7761 36.3791 83.673 36.2419 83.673 36.0894V30.9755C83.673 30.3096 83.9533 29.6284 84.5059 28.9523C84.9289 28.4338 85.5106 27.9153 86.2404 27.407C87.4646 26.5555 88.6729 26.0319 88.7231 26.009C88.7707 25.9887 88.8209 25.9785 88.8712 25.9785C88.9214 25.9785 88.9717 25.9887 89.0193 26.009C89.0695 26.0319 90.2778 26.553 91.502 27.407C92.2318 27.9153 92.8161 28.4338 93.2365 28.9523C93.7891 29.6309 94.0693 30.3121 94.0693 30.9755V36.0894Z" fill="var(--fill-0, #F8FDFC)"/>
<g id="Group">
<path id="Vector_3" d="M89.8733 45.547L90.73 42.7969L88.353 44.5379L85.8967 42.9062L86.8856 45.6156L84.5112 47.3592L87.499 47.2906L88.4879 50L89.3445 47.2499L92.3323 47.1813L89.8733 45.547Z" fill="var(--fill-0, #FFA000)"/>
<path id="Vector_4" d="M86.6582 4.41999L85.7354 7.1523L88.1521 5.46462L90.5714 7.1523L89.6459 4.41999L92.0652 2.73231H89.0775L88.1521 -3.74507e-07L87.2293 2.73231H84.2415L86.6582 4.41999Z" fill="var(--fill-0, #FFA000)"/>
<path id="Vector_5" d="M78.1075 42.0801L77.1847 39.3478L76.2619 42.0801H73.2742L75.6908 43.7678L74.7681 46.5001L77.1847 44.8099L79.604 46.5001L78.6786 43.7678L81.0979 42.0801H78.1075Z" fill="var(--fill-0, #FFA000)"/>
<path id="Vector_6" d="M70.876 35.4209L72.4148 32.9605L69.6651 34.0814L67.7032 31.9134L67.9623 34.7753L65.2125 35.8962L68.1236 36.5443L68.3827 39.4037L69.9242 36.9434L72.8352 37.5915L70.876 35.4209Z" fill="var(--fill-0, #FFA000)"/>
<path id="Vector_7" d="M69.1573 10.5429L68.2319 13.2752H65.2442L67.6635 14.9629L66.7381 17.6952L69.1573 16.0075L71.574 17.6952L70.6512 14.9629L73.0679 13.2752H70.0801L69.1573 10.5429Z" fill="var(--fill-0, #FFA000)"/>
<path id="Vector_8" d="M77.1847 2.82381L76.2619 5.55612H73.2742L75.6908 7.24634L74.7681 9.97611L77.1847 8.28843L79.604 9.97611L78.6786 7.24634L81.0979 5.55612H78.1075L77.1847 2.82381Z" fill="var(--fill-0, #FFA000)"/>
<path id="Vector_9" d="M100.045 42.0801L99.1196 39.3478L98.1969 42.0801H95.2091L97.6257 43.7678L96.703 46.5001L99.1196 44.8099L101.539 46.5001L100.613 43.7678L103.033 42.0801H100.045Z" fill="var(--fill-0, #FFA000)"/>
<path id="Vector_10" d="M108.072 34.361L107.149 31.6287L106.227 34.361H103.239L105.656 36.0487L104.733 38.781L107.149 37.0933L109.566 38.781L108.643 36.0487L111.06 34.361H108.072Z" fill="var(--fill-0, #FFA000)"/>
<path id="Vector_11" d="M114 23.8181H111.012L110.087 21.0858L109.164 23.8181H106.176L108.593 25.5058L107.67 28.2381L110.087 26.5504L112.506 28.2381L111.583 25.5058L114 23.8181Z" fill="var(--fill-0, #FFA000)"/>
<path id="Vector_12" d="M105.656 14.9629L104.733 17.6952L107.149 16.0075L109.566 17.6952L108.643 14.9629L111.06 13.2752H108.072L107.149 10.5429L106.227 13.2752H103.239L105.656 14.9629Z" fill="var(--fill-0, #FFA000)"/>
<path id="Vector_13" d="M99.1196 2.82381L98.1969 5.55612H95.2091L97.6257 7.24634L96.703 9.97611L99.1196 8.28843L101.539 9.97611L100.613 7.24634L103.033 5.55612H100.045L99.1196 2.82381Z" fill="var(--fill-0, #FFA000)"/>
</g>
<g id="Group_2">
<path id="Vector_14" d="M4.14046 22.5015C4.38899 22.0135 4.72743 21.5662 5.15047 21.1595C5.57352 20.7528 6.10233 20.425 6.73954 20.1784C7.3741 19.9319 8.1303 19.7997 9.00811 19.787C9.70349 19.7718 10.4518 19.8709 11.2555 20.0818C12.0567 20.2928 12.7547 20.5876 13.3443 20.9663L14.7959 18.0866C13.963 17.5783 13.0323 17.2072 12.0038 16.9734C10.9753 16.7395 9.99169 16.6175 9.05306 16.6023C7.72047 16.587 6.5571 16.77 5.55766 17.1487C4.55821 17.5274 3.70683 18.0332 3.00352 18.6636C2.30021 19.2965 1.72381 20.0081 1.27961 20.8011C0.832774 21.5941 0.507558 22.3999 0.303968 23.2234C0.100377 24.0443 -0.00273992 24.8272 -0.00273992 25.5693C-0.00273992 26.647 0.158546 27.5773 0.486406 28.3626C0.811621 29.148 1.2426 29.8139 1.77934 30.3579C2.31607 30.9043 2.90305 31.3466 3.53762 31.6897C4.17218 32.0328 4.80146 32.2946 5.42017 32.4751C6.04151 32.6581 6.60469 32.7826 7.1097 32.8563C7.61735 32.93 8.00603 32.9656 8.27836 32.9656C8.95788 32.9656 9.67441 32.897 10.4227 32.7572C11.1709 32.62 11.861 32.4344 12.4877 32.2006C13.1143 31.9668 13.5717 31.7355 13.8599 31.5016L14.7457 24.39H8.50575L8.11972 27.4222H11.0017L10.7532 29.5166C10.5099 29.6335 10.2323 29.7174 9.91237 29.7682C9.59509 29.819 9.25401 29.8368 8.89178 29.8216C8.64853 29.8216 8.3048 29.7936 7.85796 29.7352C7.41112 29.6767 6.93784 29.5649 6.44076 29.3971C5.94104 29.2294 5.45983 28.9828 4.99977 28.6549C4.53706 28.3271 4.16425 27.9051 3.87605 27.3892C3.58785 26.8732 3.44508 26.2302 3.44508 25.4575C3.44508 25.0076 3.49796 24.5222 3.60372 24.0062C3.70948 23.4902 3.88663 22.9895 4.13781 22.5015H4.14046Z" fill="var(--fill-0, white)"/>
<path id="Vector_15" d="M30.8635 19.3041C30.3188 18.5035 29.5521 17.863 28.5605 17.3851C27.569 16.9047 26.3263 16.6658 24.8272 16.6658H18.9257L16.8845 32.7216H23.4206C24.4649 32.7216 25.475 32.5437 26.4506 32.1879C27.4263 31.832 28.312 31.3161 29.1052 30.64C29.8984 29.9639 30.5568 29.148 31.0803 28.1974C31.6012 27.2443 31.9317 26.1717 32.0665 24.9797C32.1882 23.9757 32.1538 22.9794 31.9634 21.9906C31.773 21.0019 31.4082 20.1073 30.8635 19.3066V19.3041ZM28.7086 24.7585C28.6187 25.5592 28.4204 26.2683 28.119 26.8859C27.8149 27.5036 27.4263 28.017 26.9503 28.4236C26.4744 28.8303 25.9218 29.1404 25.2925 29.3514C24.6632 29.5623 23.9811 29.6665 23.2381 29.6665H20.5597L21.8315 19.698H24.5099C24.888 19.698 25.3375 19.7667 25.861 19.9065C26.3819 20.0437 26.8869 20.2953 27.3707 20.6588C27.8546 21.0223 28.2327 21.5357 28.505 22.1965C28.7774 22.8574 28.8461 23.7114 28.7086 24.7585Z" fill="var(--fill-0, white)"/>
<path id="Vector_16" d="M45.1149 17.9519C44.6311 17.53 44.0282 17.2097 43.3117 16.9912C42.5925 16.7726 41.757 16.6633 40.8052 16.6633H35.7445L33.7033 32.7191H37.1062L37.7645 27.6357H40.012C41.2229 27.6357 42.2462 27.4426 43.087 27.0562C43.9278 26.6724 44.6046 26.1692 45.1176 25.5515C45.6305 24.9339 46.006 24.2604 46.2413 23.5334C46.4766 22.8065 46.593 22.0923 46.593 21.3959C46.593 20.6995 46.4687 20.0183 46.2175 19.4439C45.969 18.8695 45.6014 18.3713 45.1176 17.9494L45.1149 17.9519ZM42.9944 22.6642C42.8966 22.9692 42.7327 23.2691 42.5053 23.5589C42.2779 23.8512 41.9844 24.0901 41.6195 24.2782C41.2573 24.4688 40.8025 24.5628 40.2579 24.5628H38.1479L38.7613 19.7209H40.8951C41.5455 19.7209 42.0294 19.848 42.3466 20.1022C42.6639 20.3563 42.8754 20.6512 42.9812 20.9867C43.087 21.3222 43.1399 21.6119 43.1399 21.8585C43.1399 22.0923 43.0896 22.3592 42.9918 22.6667L42.9944 22.6642Z" fill="var(--fill-0, white)"/>
<path id="Vector_17" d="M59.5248 24.0392C59.813 23.3835 60.0007 22.7303 60.0933 22.0745C60.1991 21.2459 60.1488 20.5012 59.9452 19.8378C59.7416 19.1745 59.39 18.6102 58.8903 18.1349C58.3905 17.6622 57.7507 17.2987 56.9733 17.0445C56.1933 16.7904 55.2838 16.6633 54.2394 16.6633H49.1787L47.1375 32.7191H50.4294L51.0877 27.6154H53.2664L56.1484 32.7191H59.9822L56.8385 26.8808C57.4043 26.5911 57.8935 26.2403 58.3033 25.826C58.8321 25.2872 59.2419 24.6925 59.5275 24.0367L59.5248 24.0392ZM52.0819 19.7184H54.443C55.0168 19.7184 55.4636 19.8124 55.7809 20.003C56.0982 20.1911 56.3229 20.425 56.4498 20.702C56.5794 20.9791 56.6534 21.251 56.6772 21.5204C56.701 21.7899 56.6957 22.011 56.6666 22.1864C56.6349 22.4914 56.5238 22.8294 56.3255 23.2005C56.1299 23.5716 55.8258 23.8918 55.4186 24.1612C55.0115 24.4307 54.4721 24.5654 53.8084 24.5654H51.4711L52.0845 19.7235L52.0819 19.7184Z" fill="var(--fill-0, white)"/>
</g>
</g>
<defs>
<clipPath id="clip0_0_11">
<rect width="114" height="50" fill="white"/>
</clipPath>
</defs>
</svg>
