<svg width="24" height="24" viewBox="0 0 24 24" fill="none" xmlns="http://www.w3.org/2000/svg">
  <g clip-path="url(#clip0_3053_6379)">
    <mask id="mask0_3053_6379" style="mask-type: luminance" maskUnits="userSpaceOnUse" x="0" y="0" width="24" height="24">
      <path d="M0.5 0.5H23.5V23.5H0.5V0.5Z" fill="white" stroke="white" />
    </mask>
    <g mask="url(#mask0_3053_6379)">
      <path d="M12 14.4155C13.3331 14.4155 14.4138 13.3348 14.4138 12.0017C14.4138 10.6686 13.3331 9.58789 12 9.58789C10.6669 9.58789 9.58618 10.6686 9.58618 12.0017C9.58618 13.3348 10.6669 14.4155 12 14.4155Z" stroke="#1578F7" stroke-miterlimit="10" stroke-linecap="round" />
      <path d="M12 5.44828C12.9522 5.44828 13.7242 4.67635 13.7242 3.72414C13.7242 2.77192 12.9522 2 12 2C11.0478 2 10.2759 2.77192 10.2759 3.72414C10.2759 4.67635 11.0478 5.44828 12 5.44828Z" stroke="#1578F7" stroke-miterlimit="10" stroke-linecap="round" />
      <path d="M12 5.44922V9.58715" stroke="#1578F7" stroke-miterlimit="10" stroke-linecap="round" />
      <path d="M7.36733 4.92806C7.60867 5.1691 7.7731 5.47631 7.8398 5.81081C7.9065 6.14532 7.87248 6.4921 7.74204 6.80727C7.61161 7.12244 7.39063 7.39184 7.10705 7.58139C6.82347 7.77093 6.49004 7.8721 6.14894 7.8721C5.80785 7.8721 5.47442 7.77093 5.19084 7.58139C4.90726 7.39184 4.68628 7.12244 4.55584 6.80727C4.42541 6.4921 4.39139 6.14532 4.45809 5.81081C4.52479 5.47631 4.68921 5.1691 4.93055 4.92806C5.25383 4.60518 5.69205 4.42383 6.14894 4.42383C6.60584 4.42383 7.04406 4.60518 7.36733 4.92806Z" stroke="#1578F7" stroke-miterlimit="10" stroke-linecap="round" />
      <path d="M7.36719 7.36719L10.2932 10.2932" stroke="#1578F7" stroke-miterlimit="10" stroke-linecap="round" />
      <path d="M3.72414 13.7256C4.67635 13.7256 5.44828 12.9537 5.44828 12.0015C5.44828 11.0493 4.67635 10.2773 3.72414 10.2773C2.77192 10.2773 2 11.0493 2 12.0015C2 12.9537 2.77192 13.7256 3.72414 13.7256Z" stroke="#1578F7" stroke-miterlimit="10" stroke-linecap="round" />
      <path d="M5.44849 12H9.58642" stroke="#1578F7" stroke-miterlimit="10" stroke-linecap="round" />
      <path d="M4.92879 16.6327C5.16983 16.3914 5.47704 16.2269 5.81155 16.1602C6.14606 16.0935 6.49283 16.1276 6.808 16.258C7.12317 16.3884 7.39257 16.6094 7.58212 16.893C7.77166 17.1766 7.87284 17.51 7.87284 17.8511C7.87284 18.1922 7.77166 18.5256 7.58212 18.8092C7.39257 19.0928 7.12317 19.3138 6.808 19.4442C6.49283 19.5746 6.14606 19.6086 5.81155 19.5419C5.47704 19.4752 5.16983 19.3108 4.92879 19.0695C4.60592 18.7462 4.42456 18.308 4.42456 17.8511C4.42456 17.3942 4.60592 16.956 4.92879 16.6327Z" stroke="#1578F7" stroke-miterlimit="10" stroke-linecap="round" />
      <path d="M7.36719 16.633L10.2932 13.707" stroke="#1578F7" stroke-miterlimit="10" stroke-linecap="round" />
      <path d="M12 21.9991C12.9522 21.9991 13.7242 21.2271 13.7242 20.2749C13.7242 19.3227 12.9522 18.5508 12 18.5508C11.0478 18.5508 10.2759 19.3227 10.2759 20.2749C10.2759 21.2271 11.0478 21.9991 12 21.9991Z" stroke="#1578F7" stroke-miterlimit="10" stroke-linecap="round" />
      <path d="M12 18.55V14.4121" stroke="#1578F7" stroke-miterlimit="10" stroke-linecap="round" />
      <path d="M16.6327 19.071C16.3914 18.83 16.2269 18.5228 16.1602 18.1882C16.0935 17.8537 16.1276 17.507 16.258 17.1918C16.3884 16.8766 16.6094 16.6072 16.893 16.4177C17.1766 16.2281 17.51 16.127 17.8511 16.127C18.1922 16.127 18.5256 16.2281 18.8092 16.4177C19.0928 16.6072 19.3138 16.8766 19.4442 17.1918C19.5746 17.507 19.6086 17.8537 19.5419 18.1882C19.4752 18.5228 19.3108 18.83 19.0695 19.071C18.7462 19.3939 18.308 19.5752 17.8511 19.5752C17.3942 19.5752 16.956 19.3939 16.6327 19.071Z" stroke="#1578F7" stroke-miterlimit="10" stroke-linecap="round" />
      <path d="M16.6325 16.633L13.7065 13.707" stroke="#1578F7" stroke-miterlimit="10" stroke-linecap="round" />
      <path d="M20.2759 13.7256C21.2281 13.7256 22 12.9537 22 12.0015C22 11.0493 21.2281 10.2773 20.2759 10.2773C19.3237 10.2773 18.5518 11.0493 18.5518 12.0015C18.5518 12.9537 19.3237 13.7256 20.2759 13.7256Z" stroke="#1578F7" stroke-miterlimit="10" stroke-linecap="round" />
      <path d="M18.5518 12H14.4138" stroke="#1578F7" stroke-miterlimit="10" stroke-linecap="round" />
      <path d="M19.0708 7.36636C18.8297 7.6077 18.5225 7.77212 18.188 7.83882C17.8535 7.90552 17.5067 7.8715 17.1915 7.74107C16.8764 7.61064 16.607 7.38965 16.4174 7.10607C16.2279 6.82249 16.1267 6.48906 16.1267 6.14797C16.1267 5.80687 16.2279 5.47344 16.4174 5.18986C16.607 4.90628 16.8764 4.6853 17.1915 4.55487C17.5067 4.42443 17.8535 4.39041 18.188 4.45711C18.5225 4.52382 18.8297 4.68824 19.0708 4.92958C19.3936 5.25285 19.575 5.69107 19.575 6.14797C19.575 6.60486 19.3936 7.04308 19.0708 7.36636Z" stroke="#1578F7" stroke-miterlimit="10" stroke-linecap="round" />
      <path d="M16.6325 7.36719L13.7065 10.2932" stroke="#1578F7" stroke-miterlimit="10" stroke-linecap="round" />
    </g>
  </g>
  <defs>
    <clipPath id="clip0_3053_6379">
      <rect width="24" height="24" fill="white" />
    </clipPath>
  </defs>
</svg>
